<svg xmlns="http://www.w3.org/2000/svg" width="49.657" viewBox="0 0 49.65693 41.40147" height="41.401"><path d="M13.656 0A13.656 13.656 0 0 0 0 13.656c0 1.241.223 2.483.546 3.724h10.13l3.153-8.367c.745-1.987 3.675-2.185 4.619 0l5.139 13.333 1.465-3.526c.323-.82 1.192-1.44 2.26-1.44H49.11c.322-1.241.546-2.483.546-3.724A13.656 13.656 0 0 0 36 0c-4.618 0-8.69 2.309-11.173 5.81C22.346 2.309 18.274 0 13.656 0M2.483 21.104A2.483 2.483 0 0 0 0 23.587a2.483 2.483 0 0 0 2.483 2.483H8.54l13.805 13.656c2.482 2.234 2.482 2.234 4.965 0L41.116 26.07h6.058a2.483 2.483 0 0 0 2.483-2.483 2.483 2.483 0 0 0-2.483-2.483h-18.87l-2.309 5.71c-.993 2.508-3.848 2.16-4.767.075l-5.09-13.233-2.383 5.785c-.372.943-1.217 1.663-2.334 1.663H2.483z" fill="#f50057"/></svg>