<svg xmlns="http://www.w3.org/2000/svg" width="52.734" height="52.734" viewBox="0 0 52.734375 52.734375"><g transform="matrix(1.0003 0 0 .99983 -1.92 -2.08)" fill="#b71c1c" stroke-opacity="0"><path d="M15.906 4.582a34.847 34.847 0 0 0-6.615.748s-2.32 1.14-2.873 2.49c0 0-1.048 4.569-.496 5.295 0 0 3.535 6.022 2.982 6.541 0 0 2.097 2.544 2.76 2.492l.166-1.039s-2.706-2.387-2.043-3.996c0 0 11.266 15.47 21.373 20.14 0 0-.771 2.543-2.152 4.1l-2.1 2.7s.167 1.764-.496 2.283c0 0 3.424-1.66 5.578-5.033l.11 1.297s2.044-.832 2.707-3.842c0 0 1.822.624 7.013 8.047l1.602 1.504s-.112-2.077-1.492-3.323c0 0 2.32.884 2.1 2.752l.882.364s-.219-3.477-4.361-8.149c0 0-2.818-2.493.275-4.154 0 0-1.27 3.166 2.817 5.035 0 0 9.058-9.862 3.148-17.752 0 0-10.57-18.8-30.885-18.5zm-.127 1.615a1.55 2.066 0 0 1 1.551 2.067 1.55 2.066 0 0 1-1.55 2.064 1.55 2.066 0 0 1-1.55-2.064 1.55 2.066 0 0 1 1.55-2.067zm8.754 2.87c4.087 7.734 1.656 9.81 1.656 9.81-3.866 6.125-13.033-.154-13.033-.154 17.121 5.346 11.377-9.657 11.377-9.657zM8.72 9.304c1.367-.027 3.266 1.047 5.707 4.953 0 0-5.358-3.218-8.34-3.063 0 0 .875-1.855 2.633-1.89zm14.685 13.597c.878-.014 2.865.66 7.37 3.813 0 0 6.49 3.33 7.904 3.508.091-.01.188-.015.271-.03-.033.045-.138.046-.271.03-2.44.24-7.461-1.586-7.461-1.586-6.849-2.7-8.947-1.35-8.947-1.35s1.877-.467.44-3.945c0 0 .012-.428.694-.44z"/><path d="M13.1 23.69s-1.104 1.09-5.08 1.74c-3.977.649-3.507 3.478-3.507 3.478s1.16-1.662 4.446-1.584c3.286.078 2.098.312 5.053.026 2.955-.285 1.464-1.064 1.077-1.531-.387-.467-1.988-2.128-1.988-2.128zm15.106 16.537s-3.163-.404-8.084-4.698c0 0-4.218-2.973-4.686-2.936-.47.036-1.328-.404-1.328-.404s-.508 3.487-.235 3.78c.274.294.313 1.212 1.914 2.35 1.601 1.137-1.718-.037-1.718-.037s.468 2.716 1.874 3.78c0 0-4.296 1.469-5.272 4.845 0 0 4.296-.844 5.077.477 0 0-5.194-.073-5.467 1.799-.274 1.872.117 3.083.117 3.083s16.753 1.101 23.275-6.313c0 0 .508 2.019-1.132 3.524 0 0 1.523-.698 2.421-1.725.898-1.028.352 1.982-1.171 3.23-1.524 1.248 5.194-1.102 6.209-5.36l-4.1-3.376s-6.991 5.506-11.677 5.8c0 0 1.444-1.322 1.444-4.369z" fill-rule="evenodd"/><path d="M38.985 11.377s5.194-3.744 11.481-.55c0 0-3.749-.147-.586 1.395 0 0 1.562.99 1.836 1.504 0 0-3.71-.954-5.155.294 0 0 4.257.33 5.038 1.909.78 1.578.312 2.275.43 2.312.038.477-1.641 1.982-1.641 1.982s-2.265-.954-3.67-.073c0 0-4.96-7.598-7.733-8.773z"/><ellipse ry="1.2" rx=".683" cy="8.32" cx="15.78"/></g></svg>