<svg xmlns="http://www.w3.org/2000/svg"><defs><font id="PalanquinDark" horiz-adv-x="864"><font-face alphabetic="0" ascent="1320" descent="-491" font-family="Palanquin Dark SemiBold" panose-1="2 11 7 4 2 2 3 2 2 4"/><glyph glyph-name="space" horiz-adv-x="225"/><glyph d="M59 247L40 710h166l-18-506-129 43zM208 85q0-37-24-61T123 0Q87 0 62 24T37 85q0 36 25 60t61 25q36 0 60-24t25-61z" glyph-name="exclam" horiz-adv-x="246" unicode="!"/><glyph d="M392 641q0-58-43-115t-106-84l-33 73q18 13 35 29t22 36q-18 7-32 28t-15 48q0 31 24 58t62 28q35 0 60-28t26-73zm-202 0q0-58-42-115T42 442L9 515q18 13 35 29t22 36q-18 7-33 28t-15 48q0 31 25 58t61 28q36 0 61-28t25-73z" glyph-name="quotedbl" horiz-adv-x="402" unicode="&quot;"/><glyph d="M552 517q-5-25-11-49t-12-49h46l10-120h-84l-21-90h95l10-120H452q-7-26-12-52t-12-52l-135 5q5 25 11 49t11 50H212q-7-26-12-52t-13-52L53-10q5 25 11 49t11 50H31L20 209h84q4 22 9 45t11 45H31L20 419h133l23 98h137l-24-98h104q5 25 11 50t12 48h136zM261 299q-5-22-10-45t-10-45h102l21 90H261z" glyph-name="numbersign" horiz-adv-x="606" unicode="#"/><glyph d="M141-122V4q-28 8-53 18T47 43q13 31 25 62t24 64q28-16 75-30t87-15q49 0 74 17t26 43q0 61-158 115T41 502q0 53 28 96t83 68v136l107-4V692q7 1 14 1t14 1h10q5 0 11-2v110h109V670q19-6 36-14t32-17l-51-116q-46 17-77 25t-68 9q-36 0-57-13t-22-42q0-61 158-118t160-202q0-55-31-99t-88-70v-137l-109 12v101q-9-1-18-1t-20-1h-13v-109H141z" glyph-name="dollar" horiz-adv-x="560" unicode="$"/><glyph d="M714 706L416 0H248l298 706h168zM24 524q0 82 49 130t126 48q79 0 128-48t49-132q0-81-51-128t-129-48q-76 0-124 47T24 524zm176 64q-20 0-34-15t-14-49q0-33 11-50t35-17q23 0 36 16t14 49q0 31-12 48t-36 18zm389-410q0 83 49 130t126 48q79 0 127-48t49-131q0-81-51-129T761 0q-76 0-124 48t-48 130zm176 65q-21 0-34-15t-14-49q0-34 11-50t35-17q23 0 36 16t14 49q0 31-12 48t-36 18z" glyph-name="percent" horiz-adv-x="964" unicode="%"/><glyph d="M315 119q21 0 40 7t36 20q-34 31-69 62t-71 62l-18 17q-10-16-16-33t-6-35q0-49 29-74t75-26zm20 440q-37 0-54-19t-18-41q0-24 16-47t54-55l139-122q13 31 21 65t11 69l145-59q-4-48-17-94t-35-88l77-66-97-119q-19 16-37 32t-38 33q-38-31-86-49T312-19q-112 0-192 58T40 214q0 50 25 98t65 83q-15 22-23 47t-9 55q0 80 61 139t160 60q55 0 104-15t93-43l-48-117q-33 18-65 28t-68 10z" glyph-name="ampersand" horiz-adv-x="694" unicode="&amp;"/><glyph d="M190 641q0-58-42-115T42 442L9 515q18 13 35 29t22 36q-18 7-33 28t-15 48q0 31 25 58t61 28q36 0 61-28t25-73z" glyph-name="quotesingle" horiz-adv-x="200" unicode="'"/><glyph d="M41 321q0 97 33 185t94 176l142-37q-43-59-75-153t-33-170q0-77 32-174T309-1L168-39q-59 78-93 169T41 321z" glyph-name="parenleft" horiz-adv-x="328" unicode="("/><glyph d="M288 322q0-97-33-185T160-39L19-2q43 59 75 153t32 170q0 77-31 174T20 644l141 38q58-78 92-169t35-191z" glyph-name="parenright" horiz-adv-x="328" unicode=")"/><glyph d="M211 504l-66-95-104 69 71 93q-9 2-48 10t-49 9l33 116 97-26q0 8 1 48t1 49h130v-97l97 26 33-116-96-18 71-94-104-69-67 95z" glyph-name="asterisk" horiz-adv-x="422" unicode="*"/><glyph d="M526 210H351V1L198 8v202H29L19 338h179v192h153V338h165l10-128z" glyph-name="plus" horiz-adv-x="545" unicode="+"/><glyph d="M192 45q0-57-42-114T44-154L10-80q18 13 35 29t22 36Q50-8 35 13T20 61q0 31 25 58t61 28q35 0 60-28t26-74z" glyph-name="comma" horiz-adv-x="204" unicode=","/><glyph d="M304 209H30L19 338h275l10-129z" glyph-name="hyphen" horiz-adv-x="322" unicode="-"/><glyph d="M180 85q0-37-24-61T96 0Q59 0 35 24T10 85q0 36 24 60t62 25q35 0 59-24t25-61z" glyph-name="period" horiz-adv-x="191" unicode="."/><glyph d="M474 706L175 0H5l298 706h171z" glyph-name="slash" horiz-adv-x="479" unicode="/"/><glyph d="M329 579q118 0 201-75t84-218q0-139-84-219T328-14q-112 0-198 78T44 284q0 139 84 217t201 78zm0-457q49 0 85 43t36 118q0 78-35 119t-87 42q-48 0-83-41t-36-116q0-78 35-121t85-44z" glyph-name="zero" horiz-adv-x="659" unicode="0"/><glyph d="M56 124h126v242q-17-9-34-17t-35-17L40 464l197 102h110V124h83q4-31 7-62t8-62H70l-6 62q-3 31-8 62z" glyph-name="one" horiz-adv-x="477" unicode="1"/><glyph d="M452 405q0-63-30-117T321 173l-53-45h192L477 0H40v109l178 157q49 43 68 73t20 54q0 23-18 38t-50 15q-36 0-76-22t-59-36L33 497q31 26 85 54t126 28q119 0 163-55t45-119z" glyph-name="two" horiz-adv-x="518" unicode="2"/><glyph d="M497 403q0-39-24-78t-53-53q33-16 60-58t28-93q0-87-70-142T251-77q-55 0-118 19T16-6l87 110q42-26 76-37t73-12q38 0 64 18t27 51q0 34-25 54t-71 20h-82l-16 129h76q49 0 78 17t29 48q0 22-20 38t-61 16q-34 0-69-14t-67-36L37 506q51 39 109 56t118 17q108 0 170-50t63-126z" glyph-name="three" horiz-adv-x="555" unicode="3"/><glyph d="M577 56h-91V-65H321V56H43L24 180l339 391h123V186h101L577 56zM213 186h108v133L213 186z" glyph-name="four" horiz-adv-x="615" unicode="4"/><glyph d="M69 189l19 377h384l-16-130H228l-4-83q13 7 29 11t37 4q105 0 159-64t54-152q0-101-67-165T252-78q-55 0-119 20T21-7l82 116q43-24 77-36t75-12q43 0 71 24t29 67q0 37-21 59t-55 22q-28 0-45-14t-25-30H69z" glyph-name="five" horiz-adv-x="537" unicode="5"/><glyph d="M448 523q-53-13-110-50t-94-90q22 13 46 20t44 8q101 0 167-58t66-143q0-87-65-155T330-13q-121 0-203 69T44 265q0 116 92 226t236 144l76-112zM315 296q-33 0-61-19t-43-42q8-55 37-85t75-30q38 0 59 27t21 58q0 37-22 64t-66 27z" glyph-name="six" horiz-adv-x="597" unicode="6"/><glyph d="M33-31l259 467H49L32 566h438l35-65L194-74 33-31z" glyph-name="seven" horiz-adv-x="519" unicode="7"/><glyph d="M300-13q-117 0-186 56T44 193q0 46 28 86t65 62q-29 19-49 51t-21 69q0 80 66 131t167 51q97 0 163-51t67-131q0-37-20-69t-49-52q36-21 64-61t28-86q0-90-67-148T300-13zm-68 466q0-24 17-42t51-23q32 5 48 23t17 43q0 19-17 37t-50 18q-31 0-48-18t-18-38zm67-333q34 0 62 22t29 56q0 27-23 53t-67 34q-46-7-69-33t-23-54q0-33 28-55t63-23z" glyph-name="eight" horiz-adv-x="597" unicode="8"/><glyph d="M149 43q52 12 109 49t94 89q-22-12-45-19t-43-7q-101 0-167 58T30 356q0 87 65 155t174 68q120 0 202-70t82-208q0-116-92-226T225-69L149 43zm133 227q33 0 60 19t44 42q-8 55-38 85t-74 30q-38 0-59-27t-21-58q0-37 22-64t66-27z" glyph-name="nine" horiz-adv-x="597" unicode="9"/><glyph d="M180 390q0-36-24-60t-60-25q-37 0-61 24t-25 61q0 36 24 60t62 25q35 0 59-24t25-61zm0-305q0-37-24-61T96 0Q59 0 35 24T10 85q0 36 24 60t62 25q35 0 59-24t25-61z" glyph-name="colon" horiz-adv-x="191" unicode=":"/><glyph d="M186 390q0-36-24-60t-61-25q-37 0-61 24t-25 61q0 36 24 60t62 25q36 0 60-24t25-61zm-1-321q0-57-43-114T36-130L3-56q18 13 35 29T60 9q-17 7-32 28T13 85q0 31 24 58t61 27q36 0 61-28t26-73z" glyph-name="semicolon" horiz-adv-x="198" unicode=";"/><glyph d="M316 5L25 213v74l291 206 30-140-147-103 147-103L316 5z" glyph-name="less" horiz-adv-x="369" unicode="&lt;"/><glyph d="M494 299H31L20 420h464l10-121zm0-210H31L20 210h464l10-121z" glyph-name="equal" horiz-adv-x="514" unicode="="/><glyph d="M53 493l291-208v-73L53 5 24 145l146 103L24 352l29 141z" glyph-name="greater" horiz-adv-x="369" unicode="&gt;"/><glyph d="M438 513q0-59-43-109t-130-86l-14-123-125 39-8 162q68 22 111 54t44 65q0 24-18 38t-44 14q-28 0-69-11t-99-46L22 648q49 29 96 41t96 12q103 0 163-52t61-136zM265 85q0-37-25-61T180 0q-36 0-61 24T94 85q0 36 25 60t61 25q35 0 60-24t25-61z" glyph-name="question" horiz-adv-x="463" unicode="?"/><glyph d="M593 385l-23-188q0-7 3-11t6-5q22 0 49 32t27 90q0 77-52 134t-156 58q-110 0-188-72t-78-195q0-104 72-159t166-56q28 0 79 5t88 22q10-25 20-49t20-50q-60-31-113-39t-103-8q-145 0-259 88T37 233q0 152 108 269t299 118q148 0 247-91t99-221q0-123-69-188T570 55q-19 0-38 5t-35 18q-18-9-38-14t-43-6q-94 0-139 47t-45 121q0 94 64 156t154 62h9q5 0 9-1l86-8 39-50zM414 186q12 0 19 10t9 23l15 110q-40 0-65-27t-25-70q0-16 11-31t36-15z" glyph-name="at" horiz-adv-x="824" unicode="@"/><glyph d="M343 476l-73-203h149l-76 203zm82 204L682 18 520 0l-53 143H224L172 0H9l258 680h158z" glyph-name="A" horiz-adv-x="691" unicode="A"/><glyph d="M571 482q-1-37-16-66t-40-53q42-27 68-67t27-95q0-109-80-155T339 0H74v680h236q110 0 185-46t76-152zm-271 66h-62V415h49q51 0 82 14t31 50q0 37-26 53t-74 16zm40-263H238V130h100q46 0 74 18t28 56q0 39-27 60t-73 21z" glyph-name="B" horiz-adv-x="647" unicode="B"/><glyph d="M368 558q-68 0-110-60t-42-160q0-96 40-156t113-60q40 0 74 10t62 25l62-122q-39-23-94-35T369-13q-163 0-243 99T46 337q0 157 85 256t237 100q43 0 97-13t96-39l-49-112q-51 16-79 22t-65 7z" glyph-name="C" horiz-adv-x="602" unicode="C"/><glyph d="M353 0H74v680h279q159 0 240-94t81-242q0-158-88-251T353 0zm-2 548H238V131h106q70 0 115 51t45 162q0 91-38 147t-115 57z" glyph-name="D" horiz-adv-x="714" unicode="D"/><glyph d="M565 0H74v680h436l18-130H238V406h200l18-129H238V128h308q5-32 9-64t10-64z" glyph-name="E" horiz-adv-x="585" unicode="E"/><glyph d="M453 267H238V0H74v680h422q5-32 9-65t9-65H238V396h197l18-129z" glyph-name="F" horiz-adv-x="525" unicode="F"/><glyph d="M606 37Q566 14 501 1T380-13q-163 0-248 95T46 337q0 163 95 259t249 97q43 0 105-13t103-39l-49-112q-51 16-85 22t-72 7q-72 0-124-55t-52-165q0-110 47-163t120-53q20 0 39 2t36 6v133H333l-7 122h280V37z" glyph-name="G" horiz-adv-x="669" unicode="G"/><glyph d="M238 685V403h255v277h164V0H493v273H238V0H74v685h164z" glyph-name="H" horiz-adv-x="732" unicode="H"/><glyph d="M238 680V0H74v680h164z" glyph-name="I" horiz-adv-x="313" unicode="I"/><glyph d="M251 680V158q0-74-39-112T71-24Q55 7 38 39T5 103q54 21 67 43t14 54v480h165z" glyph-name="J" horiz-adv-x="320" unicode="J"/><glyph d="M234 680V427l267 268 126-93-221-222L684 0H476L291 265l-57-58V0H70v680h164z" glyph-name="K" horiz-adv-x="684" unicode="K"/><glyph d="M549 0H75v680h164V129h292L549 0z" glyph-name="L" horiz-adv-x="559" unicode="L"/><glyph d="M366 198L238 358V0H74v680h111l213-278q49 69 97 139t98 139h107V0H535v350q-25-36-51-71t-53-72q-16-1-32-4t-33-5z" glyph-name="M" horiz-adv-x="775" unicode="M"/><glyph d="M674 680V0H518q-70 97-140 198T238 396V0H74v680h156l280-404v404h164z" glyph-name="N" horiz-adv-x="749" unicode="N"/><glyph d="M371 695q163 0 244-102t82-249q0-158-86-258T371-14Q209-14 128 88T46 337q0 157 87 257t238 101zm-1-572q74 0 115 55t42 166q0 93-36 153t-118 60q-72 0-115-60t-43-159q0-93 36-154t119-61z" glyph-name="O" horiz-adv-x="742" unicode="O"/><glyph d="M75 0v680h261q113 0 194-57t82-179q0-119-87-176t-197-57h-89V0H75zm256 549h-92V342h94q47 0 78 26t31 73q0 52-29 80t-82 28z" glyph-name="P" horiz-adv-x="646" unicode="P"/><glyph d="M371 695q163 0 244-102t82-249q0-71-18-131t-52-107l63-66-100-87-66 67Q491 4 453-5t-82-9Q209-14 128 88T46 337q0 157 87 257t238 101zm-1-572q11 0 22 1t22 6l-83 85 109 90 70-75q8 22 12 51t5 63q0 93-36 153t-118 60q-72 0-115-60t-43-159q0-93 36-154t119-61z" glyph-name="Q" horiz-adv-x="742" unicode="Q"/><glyph d="M330 548h-92V359h94q48 0 78 24t31 70q0 49-29 72t-82 23zM481 0q-31 57-61 114t-60 115q-8-1-16-1t-17 0h-89V0H74v680h261q113 0 195-53t82-172q0-62-28-107t-72-72q39-69 77-138T667 0H481z" glyph-name="R" horiz-adv-x="678" unicode="R"/><glyph d="M41 503q0 81 66 136t181 55q51 0 104-15t93-39l-50-117q-46 17-77 25t-68 9q-36 0-57-15t-22-40q0-28 33-47t79-43q72-37 138-91t66-138q0-84-69-140T263-13q-49 0-115 17T47 43l50 126q28-16 75-30t87-15q49 0 74 18t25 43q0 23-35 45t-78 44q-69 36-136 88T41 503z" glyph-name="S" horiz-adv-x="560" unicode="S"/><glyph d="M8 680h571q5-33 9-65t10-65H375V0H211v550H8v130z" glyph-name="T" horiz-adv-x="606" unicode="T"/><glyph d="M230 680V264q0-71 37-106t94-35q58 0 95 35t37 106v416h164V255q0-125-81-196T361-12q-133 0-214 70T66 255v425h164z" glyph-name="U" horiz-adv-x="724" unicode="U"/><glyph d="M266 0L9 662l161 18 177-477 171 477h164L424 0H266z" glyph-name="V" horiz-adv-x="691" unicode="V"/><glyph d="M702 0L550 439 403 0H244L9 662l161 18 155-471 147 471h160l154-470 148 470h164L862 0H702z" glyph-name="W" horiz-adv-x="1106" unicode="W"/><glyph d="M9 12l120 164q60 82 121 164L13 657l92 12q46 6 93 12l154-207q40 51 80 103t82 103h195L450 342 705 0H505q-40 51-78 104t-79 105L266 99q-41-55-83-110L9 12z" glyph-name="X" horiz-adv-x="718" unicode="X"/><glyph d="M239 0v267L9 662l170 18 141-258 149 258h170L403 264V0H239z" glyph-name="Y" horiz-adv-x="647" unicode="Y"/><glyph d="M574 560q-84-99-168-203T214 128h344l8-64 8-64H36L18 118l351 432H63q-4 33-8 65t-8 65h509l18-120z" glyph-name="Z" horiz-adv-x="595" unicode="Z"/><glyph d="M233 566V41h147q4-31 8-63t10-65H69v783h329l-18-130H233z" glyph-name="bracketleft" horiz-adv-x="407" unicode="["/><glyph d="M304-4L5 710h170L474-4H304z" glyph-name="backslash" horiz-adv-x="479" unicode="\"/><glyph d="M172 41v525H25q-4 33-8 65t-9 65h329V-87H8L25 41h147z" glyph-name="bracketright" horiz-adv-x="407" unicode="]"/><glyph d="M179 142H17l163 270h122l162-270H305l-63 113-63-113z" glyph-name="asciicircum" horiz-adv-x="481" unicode="^"/><glyph d="M410 0H30L19 129h381L410 0z" glyph-name="underscore" horiz-adv-x="429" unicode="_"/><glyph d="M12 775h164l70-187H120L12 775z" glyph-name="grave" horiz-adv-x="257" unicode="`"/><glyph d="M217 120q19 0 39 9t40 25v49h-71q-23 0-37-13t-14-33q0-15 12-26t31-11zm39 381q94 0 149-54t55-141V0h-76l-33 38q-24-21-60-35t-75-14q-91 0-135 45T36 152q0 78 52 115t136 38h71q-3 27-21 42t-47 15q-28 0-64-9t-64-21L55 455q35 18 92 32t109 14z" glyph-name="a" horiz-adv-x="513" unicode="a"/><glyph d="M227 706V473q22 13 52 21t58 8q114 0 171-72t58-182q0-109-57-184T331-11q-39 0-80 15t-75 40L146 0H63v695l164 11zm170-460q0 48-24 84t-78 37q-14 0-33-5t-35-14V153q16-13 37-21t41-8q50 0 71 40t21 82z" glyph-name="b" horiz-adv-x="601" unicode="b"/><glyph d="M306 365q-43 0-72-34t-30-89q0-55 29-86t73-32q28 0 51 6t55 22l47-114Q419 7 372-2t-78-9q-118 0-189 67T34 242q0 120 71 189t189 70q30 0 77-9t88-41l-47-114q-31 15-54 21t-52 7z" glyph-name="c" horiz-adv-x="487" unicode="c"/><glyph d="M305 124q15 0 35 6t37 15v190q-17 14-40 23t-42 9q-50 0-70-40t-21-82q0-48 23-84t78-37zm237 582V0h-84l-33 49q-25-23-66-41t-96-19Q150-11 92 61T34 243q0 109 58 184t179 76q25 0 53-7t53-21v220l165 11z" glyph-name="d" horiz-adv-x="605" unicode="d"/><glyph d="M289 501q116 0 172-75t57-178v-55H212q10-35 38-52t71-18q32 0 63 6t62 22l46-113Q453 9 396-1t-88-10q-121 0-197 63T34 242q0 120 72 189t183 70zm-4-134q-30 0-49-19t-27-53h152q-4 28-22 50t-54 22z" glyph-name="e" horiz-adv-x="550" unicode="e"/><glyph d="M314 702q31 0 67-11t54-28l-47-114q-16 9-34 13t-30 4q-33 0-50-19t-17-53v-35h120l25-129H257V0H93v330H15v129h78v54q0 93 64 141t157 48z" glyph-name="f" horiz-adv-x="437" unicode="f"/><glyph d="M203 245q0-49 23-85t78-36q16 0 36 6t37 15v189q-17 14-40 23t-42 10q-51 0-71-40t-21-82zm338 239V-2q0-100-66-156t-194-56q-31 0-92 13T84-158q12 28 24 57t25 58q48-23 80-30t65-8q49 0 74 19t25 58v19Q352 4 323-3t-61-8Q149-11 92 61T34 242q0 110 58 185t179 75q39 0 81-16t75-42l31 40h83z" glyph-name="g" horiz-adv-x="605" unicode="g"/><glyph d="M370 502q101 0 144-57t44-144V0H394v296q0 34-19 52t-50 19q-21 0-48-11t-50-24V0H63v695l164 11V464q31 17 70 27t73 11z" glyph-name="h" horiz-adv-x="611" unicode="h"/><glyph d="M233 641q0-37-27-63t-64-26q-37 0-63 26t-26 63q0 37 26 64t63 27q37 0 64-27t27-64zm-8-156V0H60v485h165z" glyph-name="i" horiz-adv-x="286" unicode="i"/><glyph d="M59 642q0 37 26 63t63 27q38 0 64-26t27-64q0-37-26-63t-65-27q-37 0-63 26t-26 64zm172-157V-2q0-75-46-117T36-194L-29-74q53 19 74 42t22 58v459h164z" glyph-name="j" horiz-adv-x="294" unicode="j"/><glyph d="M227 706V333q47 41 95 82t95 84q24-29 48-57t48-57L379 278 551 0H371L264 187q-9-7-18-15t-19-15V0H63v695l164 11z" glyph-name="k" horiz-adv-x="553" unicode="k"/><glyph d="M227 706V0H63v695l164 11z" glyph-name="l" horiz-adv-x="290" unicode="l"/><glyph d="M674 503q96 0 139-58t43-144V0H691v297q0 34-16 52t-45 18q-21 0-46-11t-48-25q1-7 1-15t1-15V0H373v297q0 34-16 52t-45 18q-19 0-42-9t-45-22V0H61v484h83l36-42q31 22 77 41t100 20q50 0 85-17t57-45q30 23 77 42t98 20z" glyph-name="m" horiz-adv-x="908" unicode="m"/><glyph d="M368 503q101 0 144-58t44-144V0H392v297q0 34-18 52t-50 18q-21 0-49-11t-50-24V0H61v484h83l38-45q32 23 82 43t104 21z" glyph-name="n" horiz-adv-x="609" unicode="n"/><glyph d="M301 501q121 0 194-68t74-193q0-120-78-185T296-11q-116 0-189 65T34 245q0 120 76 188t191 68zm-3-377q47 0 74 28t27 88q0 55-24 90t-71 35q-48 0-74-31t-26-89q0-57 24-89t70-32z" glyph-name="o" horiz-adv-x="603" unicode="o"/><glyph d="M397 246q0 48-24 84t-78 37q-19 0-36-6t-32-14V153q16-13 37-21t41-8q50 0 71 40t21 82zM63 484h82l30-40q36 28 78 43t84 15q114 0 171-72t58-182q0-109-57-184T331-11q-25 0-52 7t-52 19v-224L63-219v703z" glyph-name="p" horiz-adv-x="601" unicode="p"/><glyph d="M542 484v-692l-165-11V16Q353 4 324-3t-61-8Q150-11 92 61T34 243q0 109 58 184t179 76q40 0 82-17t75-42l31 40h83zM305 124q15 0 35 6t37 15v190q-17 14-40 23t-42 9q-50 0-70-40t-21-82q0-48 23-84t78-37z" glyph-name="q" horiz-adv-x="605" unicode="q"/><glyph d="M341 485l33-132q-35 0-75-13t-74-42V0H60v484h83l44-57q30 22 72 40t82 18z" glyph-name="r" horiz-adv-x="382" unicode="r"/><glyph d="M262 309q60-21 114-58t54-104q0-75-50-116T228-11q-31 0-92 15T34 50l47 114q31-15 69-27t65-13q23 0 35 7t12 17q0 11-12 20t-40 18q-60 20-114 56T41 343q0 74 55 116t151 42q30 0 83-14t94-45l-47-114q-31 16-62 26t-60 11q-23 0-33-7t-11-16q0-9 10-16t41-17z" glyph-name="s" horiz-adv-x="459" unicode="s"/><glyph d="M302-14q-91 0-156 47T80 173v170H9v128h71v126l164 24V471h107l25-128H244V194q0-33 17-53t52-20q13 0 30 4t34 13l47-113Q407 9 370-2t-68-12z" glyph-name="t" horiz-adv-x="434" unicode="t"/><glyph d="M237-19Q136-19 94 39T52 183v301h165V187q0-34 17-52t48-18q19 0 45 10t48 23v334h165V0h-83l-38 43q-31-22-79-42T237-19z" glyph-name="u" horiz-adv-x="601" unicode="u"/><glyph d="M195 0L9 467l163 18 102-281 97 281h166L346 0H195z" glyph-name="v" horiz-adv-x="546" unicode="v"/><glyph d="M500 0l-91 267L320 0H173L9 467l163 18 80-277 78 277h162l83-277 75 277h166L647 0H500z" glyph-name="w" horiz-adv-x="824" unicode="w"/><glyph d="M8 0l180 242L14 463q42 5 84 11t85 12l102-132 103 131h181L383 229q46-57 90-114T564 0H380l-94 117-46-58q-23-29-48-59H8z" glyph-name="x" horiz-adv-x="578" unicode="x"/><glyph d="M177-9l10 26L8 467l163 18q25-70 51-141t51-140q25 69 49 140t49 141h166L322-59q-24-59-84-102t-130-59L52-90q35 15 75 35t50 46z" glyph-name="y" horiz-adv-x="546" unicode="y"/><glyph d="M432 393L332 261q-50-66-102-131h203L448 0H38q-4 21-9 42T18 85l203 269H56L37 485h387v-4q0-2 1-4l4-42q2-21 3-42z" glyph-name="z" horiz-adv-x="471" unicode="z"/><glyph d="M247 222q0-33-17-62t-18-57q0-10 9-20t29-10h40l13-113h-67q-80 0-116 32T84 85q0 31 15 72t16 61q0 17-12 28t-28 12H30v100h45q16 0 28 11t12 29q0 20-7 41t-12 40q-4 13-8 27t-4 27q0 62 38 94t123 32h58l-13-115h-40q-20 0-29-9t-9-20q0-30 17-60t17-65q0-32-9-50t-25-31q15-14 25-35t10-52z" glyph-name="braceleft" horiz-adv-x="310" unicode="{"/><glyph d="M253 699V-13L89 0v713h6q3 0 7-1 38-4 75-7t76-6z" glyph-name="bar" horiz-adv-x="343" unicode="|"/><glyph d="M62 395q0 33 17 62t17 58q0 10-8 19t-29 10H19L7 659h66q78 0 115-33t38-93q0-33-16-72t-17-63q0-18 12-29t28-11h45v-99h-45q-16 0-28-11t-12-30q0-20 8-40t12-40q4-13 8-27t5-26q0-64-40-94T63-40H7L19 73h40q20 0 28 10t9 20q0 25-15 52t-17 56q-1 8-1 16t0 15q2 25 11 40t23 26q-16 14-25 35t-10 52z" glyph-name="braceright" horiz-adv-x="310" unicode="}"/><glyph d="M136 173H14q0 90 39 143t109 53q46 0 91-16t77-17q15 0 25 13t12 32h122q0-90-32-143t-100-53q-48 0-89 17t-82 17q-15 0-32-14t-18-32z" glyph-name="asciitilde" horiz-adv-x="504" unicode="~"/><glyph glyph-name="uni00A0" horiz-adv-x="225"/><glyph d="M37 625q0 36 25 60t60 25q37 0 61-24t25-61q0-37-24-61t-62-25q-35 0-60 24t-25 62zm150-162L205 0H39l19 506 129-43z" glyph-name="exclamdown" horiz-adv-x="246" unicode="¡"/><glyph d="M306 365q-43 0-72-34t-30-89q0-55 29-86t73-32q28 0 51 6t55 22l47-114q-22-18-47-28T361-5v-124l-143 11V-3Q132 16 83 79T34 242q0 99 49 164t134 86v132h143V493q25-4 51-15t48-27l-47-114q-31 15-54 21t-52 7z" glyph-name="cent" horiz-adv-x="487" unicode="¢"/><glyph d="M37 403h79v92q0 87 60 137t151 51q33 0 72-10t60-29l-48-113q-16 8-33 12t-31 5q-33 0-49-20t-17-52v-73h128l25-128H281v-83q0-18-3-34t-8-30h214L502 0H47v128h9q30 1 45 21t15 51v75H37v128z" glyph-name="sterling" horiz-adv-x="513" unicode="£"/><glyph d="M274 247q1-44 31-74t73-30q45 0 75 30t31 75q0 44-31 74t-75 30q-45 0-74-30t-30-75zM379-12q-34 1-68 8t-63 22q-16-16-56-59t-54-56L28 18l110 109q-13 25-20 55t-8 64q0 34 8 65t21 56L20 478l121 111 107-112q28 14 62 22t68 9q34 0 68-8t62-22q16 16 56 58t54 56l109-114-109-109q13-25 21-55t8-65q0-34-8-65t-22-58L735 17 614-94 508 18Q480 4 447-3t-68-9z" glyph-name="currency" horiz-adv-x="756" unicode="¤"/><glyph d="M550 55H402V0H238v55H103L92 164h146v42H103L92 315h118q-51 86-101 173T8 662l170 18q36-65 71-129t70-130q37 65 74 129t75 130h170L431 315h109l10-109H402v-42h138l10-109z" glyph-name="yen" horiz-adv-x="647" unicode="¥"/><glyph d="M253 699V398q-38 3-75 6t-76 7h-6q-3 0-7 1v301h6q3 0 7-1 38-4 75-7t76-6zm0-412V-13L89 0v300l164-13z" glyph-name="brokenbar" horiz-adv-x="343" unicode="¦"/><glyph d="M315 305q34-16 68-36t62-45q19 7 29 20t10 27q0 23-35 45t-78 44q-33 16-66 36t-63 44q-18-5-28-17t-10-27q0-28 33-47t78-44zM167 591q1 81 66 135t181 54q50 0 103-15t94-39l-50-117q-47 18-77 26t-68 9q-36 0-58-15t-22-40q0-25 27-43t68-38l18-9q72-37 138-91t66-139q0-58-35-104T518 97l2-10 2-10q-1-84-71-140t-195-56q-49 0-115 17T41-62L90 63q28-16 75-30t87-15q49 0 74 18t26 43q0 23-35 45t-79 44q-69 35-136 88T35 399q0 57 35 102t99 66q-1 4-1 12t-1 12z" glyph-name="section" horiz-adv-x="688" unicode="§"/><glyph d="M166 680q0-33-22-55t-55-22q-31 0-54 22t-23 55q0 31 23 53t54 23q33 0 55-22t22-54zm205 0q0-33-22-55t-56-22q-31 0-54 22t-23 55q0 31 23 53t54 23q33 0 55-22t23-54z" glyph-name="dieresis" horiz-adv-x="383" unicode="¨"/><glyph d="M444-43Q268-43 161 67T54 336q0 160 107 270t283 111q178 0 284-110t107-271q0-158-106-268T444-43zm0 107q125 0 198 78t74 195q0 116-69 195t-203 79q-124 0-198-79t-75-195q0-116 74-194t199-79zm25 378q-37 0-62-28t-26-78q0-49 25-76t63-27q25 0 46 6t49 21l41-105q-35-28-77-36t-70-8q-104 0-167 59t-64 166q0 107 65 168t166 62q27 0 69-8t78-36l-41-105q-28 13-48 19t-47 6z" glyph-name="copyright" horiz-adv-x="888" unicode="©"/><glyph d="M159 452q13 0 24 4t22 14v13h-42q-12 0-19-5t-7-12q0-6 6-10t16-4zm21 250q66 0 105-37t39-99V353h-55l-24 27q-16-15-41-24t-52-10q-63 0-94 31t-31 83q0 54 36 81t95 27h41q-4 10-14 16t-25 7q-19 0-44-6t-45-15L40 670q25 13 65 22t75 10z" glyph-name="ordfeminine" horiz-adv-x="371" unicode="ª"/><glyph d="M356 76L197 223v46l159 148 29-101-73-70 73-70-29-100zm-178 0L20 223v46l158 148 30-101-73-70 73-70-30-100z" glyph-name="guillemotleft" horiz-adv-x="399" unicode="«"/><glyph d="M512 356V110l-148 7v171H23q-3 33-6 65t-5 64h485l15-61z" glyph-name="logicalnot" horiz-adv-x="526" unicode="¬"/><glyph glyph-name="softhyphen" horiz-adv-x="130" unicode="­"/><glyph d="M352 142q-157 0-249 98T11 479q0 143 92 241t249 99q158 0 250-98t92-242q0-141-92-239t-250-98zm0 92q113 1 177 71t65 175q0 106-64 175t-178 70q-113 0-177-69t-65-176q0-105 64-175t178-71zm-12 350h-32v-83h33q25 0 42 10t17 32q0 25-16 33t-44 8zm60-283q-12 31-24 61t-26 61h-42V301H208v363h149q59 0 105-28t47-92q0-35-17-60t-44-39l32-72q16-36 33-72H400z" glyph-name="registered" horiz-adv-x="745" unicode="®"/><glyph d="M12 742h281V613H12v129z" glyph-name="overscore" horiz-adv-x="304" unicode="¯"/><glyph d="M271 595q0-53-39-88t-91-36q-54 0-93 35T9 595q0 53 39 89t93 37q51 0 90-36t40-90zm-130 31q-12 0-21-9t-9-22q0-12 9-22t21-10q13 0 22 9t9 21q0 13-9 23t-22 10z" glyph-name="degree" horiz-adv-x="280" unicode="°"/><glyph d="M479 294H320V146l-136 7v141H32L22 405h162v152h136V405h150l9-111zM478 0H31L21 112h449l8-112z" glyph-name="plusminus" horiz-adv-x="500" unicode="±"/><glyph d="M350 641q0-48-22-88t-76-86l-33-29h134l12-101H37v87l131 113q31 28 45 50t16 45q0 14-12 23t-33 10q-27 0-55-16t-43-27l-53 88q24 19 64 40t93 21q90 0 125-42t35-88z" glyph-name="twosuperior" horiz-adv-x="406" unicode="²"/><glyph d="M376 638q0-28-18-57t-40-40q25-13 46-44t21-69q0-65-53-107t-140-42q-41 0-88 14t-88 40l66 88q31-19 55-28t51-9q28 0 45 13t18 33q0 25-17 38t-45 14h-62l-11 102h57q37 0 53 14t17 32q0 13-13 24t-44 11q-25 0-48-10t-47-28l-59 89q39 29 82 42t88 13q81 0 127-38t47-95z" glyph-name="threesuperior" horiz-adv-x="426" unicode="³"/><glyph d="M81 775h165L138 588H12l69 187z" glyph-name="acute" horiz-adv-x="257" unicode="´"/><glyph d="M247-18h-11q-5 0-9 2v-193L63-219v703h164V187q0-34 17-52t48-19q19 0 45 10t48 23v335h164V0h-83q-10 10-18 21t-19 22q-31-22-79-41T247-18z" glyph-name="mu" horiz-adv-x="592" unicode="µ"/><glyph d="M727 0v550H540V0H376v206h-24q-117 0-208 58T53 446q0 126 84 180t202 54h675V550H891V0H727z" glyph-name="paragraph" horiz-adv-x="1026" unicode="¶"/><glyph d="M180 263q0-37-24-61t-60-24q-37 0-61 24t-25 61q0 36 24 60t62 25q35 0 59-24t25-61z" glyph-name="middot" horiz-adv-x="191" unicode="·"/><glyph d="M93 13h114l-19-49q35-12 52-42t17-56q0-56-42-85t-94-29q-26 0-56 10t-53 27l35 82q11-5 28-11t31-6q13 0 22 4t10 14q0 14-22 25T52-88L93 13z" glyph-name="cedilla" horiz-adv-x="269" unicode="¸"/><glyph d="M53 438h95v168l-52-25-56 105 152 77h87V438h64l6-50q3-25 5-51H63L53 438z" glyph-name="onesuperior" horiz-adv-x="386" unicode="¹"/><glyph d="M27 524q0 82 47 130t129 48q84 0 130-49t47-131q0-81-50-129t-132-48q-81 0-126 48T27 524zm178 66q-23 0-36-15t-14-51q0-34 10-51t35-17q27 0 39 16t12 49q0 32-10 50t-36 19z" glyph-name="ordmasculine" horiz-adv-x="407" unicode="º"/><glyph d="M44 417l157-147v-46L44 76 14 176l72 70-72 71 30 100zm176 0l159-147v-46L220 76l-29 100 73 70-73 71 29 100z" glyph-name="guillemotright" horiz-adv-x="399" unicode="»"/><glyph d="M53 438h95v168l-52-25-56 105 152 77h87V438h64l6-50q3-25 5-51H63L53 438zm610 51q-70-122-141-246T380 0H223q69 122 140 245t141 244h159zM934-77h-74v-88H727v88H517L502 23l261 301h97V28h83l-9-105zM653 28h74v88l-74-88z" glyph-name="onequarter" horiz-adv-x="971" unicode="¼"/><glyph d="M53 438h95v168l-52-25-56 105 152 77h87V438h64l6-50q3-25 5-51H63L53 438zm624 51q-71-122-142-246T394 0H236q69 122 140 245t141 244h160zm256-295q0-56-30-100T802-8h134l12-101H620v88q33 27 65 55t66 56q32 28 46 50t15 45q0 14-12 24t-33 10q-27 0-56-16t-42-27l-26 44q-13 22-27 44 24 19 64 39t93 21q90 0 125-42t35-88z" glyph-name="onehalf" horiz-adv-x="970" unicode="½"/><glyph d="M679 489L396 0H238l282 489h159zM376 638q0-28-18-57t-40-40q25-13 46-44t21-69q0-65-53-107t-140-42q-41 0-88 14t-88 40l66 88q31-19 55-28t51-9q28 0 45 13t18 33q0 25-17 38t-45 14h-62l-11 102h57q37 0 53 14t17 32q0 13-13 24t-44 11q-25 0-48-10t-47-28l-59 89q39 29 82 42t88 13q81 0 127-38t47-95zM950-77h-74v-89H742v89H533L518 24l261 301h97V29h82l-8-106zM668 29h74v87l-74-87z" glyph-name="threequarters" horiz-adv-x="986" unicode="¾"/><glyph d="M207 579q0 36 24 60t61 25q36 0 61-24t25-61q0-36-25-61t-61-25q-36 0-60 25t-25 61zM34 151q0 59 43 109t130 86l13 122 126-38 8-161q-68-22-112-55t-44-65q0-24 18-38t45-14q28 0 69 11t99 46l21-138q-49-29-96-41t-97-12Q154-37 94 15T34 151z" glyph-name="questiondown" horiz-adv-x="477" unicode="¿"/><glyph d="M191 922h161l68-184H296L191 922zm152-446l-73-203h149l-76 203zm82 204L682 18 520 0l-53 143H224L172 0H9l258 680h158z" glyph-name="Agrave" horiz-adv-x="691" unicode="À"/><glyph d="M333 922h161L389 738H265l68 184zm10-446l-73-203h149l-76 203zm82 204L682 18 520 0l-53 143H224L172 0H9l258 680h158z" glyph-name="Aacute" horiz-adv-x="691" unicode="Á"/><glyph d="M281 739H122l167 187h94l167-187H395l-57 63-57-63zm62-263l-73-203h149l-76 203zm82 204L682 18 520 0l-53 143H224L172 0H9l258 680h158z" glyph-name="Acircumflex" horiz-adv-x="691" unicode="Â"/><glyph d="M274 750H162q0 82 38 114t82 32q33 0 56-17t48-17q10 0 17 10t7 20h108q0-83-36-115t-82-32q-32 0-55 17t-47 18q-9 0-16-10t-8-20zm69-274l-73-203h149l-76 203zm82 204L682 18 520 0l-53 143H224L172 0H9l258 680h158z" glyph-name="Atilde" horiz-adv-x="691" unicode="Ã"/><glyph d="M316 830q0-33-22-55t-54-22q-31 0-54 22t-24 55q0 31 23 53t55 23q32 0 54-22t22-54zm205 0q0-33-22-55t-56-22q-31 0-53 22t-23 55q0 31 22 53t54 23q34 0 56-22t22-54zM343 476l-73-203h149l-76 203zm82 204L682 18 520 0l-53 143H224L172 0H9l258 680h158z" glyph-name="Adieresis" horiz-adv-x="691" unicode="Ä"/><glyph d="M460 853q0-48-35-78t-83-31q-47 0-82 30t-35 79q0 47 35 79t82 33q47 0 82-32t36-80zm-84 0q0 13-9 22t-23 10q-13 0-23-9t-11-23q0-13 10-23t24-10q13 0 22 10t10 23zm-33-377l-73-203h149l-76 203zm82 204L682 18 520 0l-53 143H224L172 0H9l258 680h158z" glyph-name="Aring" horiz-adv-x="691" unicode="Å"/><glyph d="M352 268h115v166q-28-42-57-83t-58-83zM6 21l457 659h441l18-130H632V406h200l18-129H632V128h308L958 0H467v138H262L164-1Q125 4 85 9T6 21z" glyph-name="AE" horiz-adv-x="979" unicode="Æ"/><glyph d="M368 558q-68 0-110-60t-42-160q0-96 40-156t113-60q40 0 74 10t62 25l62-122q-29-17-68-28t-77-17l-10-26q35-12 52-42t17-56q0-56-42-85t-94-29q-26 0-56 10t-53 27l35 82q11-5 28-11t31-6q13 0 22 4t10 14q0 14-22 25t-64 15l31 79Q175 9 111 104T46 337q0 157 85 256t237 100q43 0 97-13t96-39l-49-112q-51 16-79 22t-65 7z" glyph-name="Ccedilla" horiz-adv-x="602" unicode="Ç"/><glyph d="M170 922h161l34-92 34-92H276L170 922zM565 0H74v680h436l18-130H238V406h200l18-129H238V128h308q5-32 9-64t10-64z" glyph-name="Egrave" horiz-adv-x="585" unicode="È"/><glyph d="M296 922h161L351 738H228q16 46 33 92t35 92zM565 0H74v680h436l18-130H238V406h200l18-129H238V128h308q5-32 9-64t10-64z" glyph-name="Eacute" horiz-adv-x="585" unicode="É"/><glyph d="M241 739H83q41 46 83 93t83 94h95l167-187H356q-14 16-28 31t-29 32q-14-16-28-31t-30-32zM565 0H74v680h436l18-130H238V406h200l18-129H238V128h308q5-32 9-64t10-64z" glyph-name="Ecircumflex" horiz-adv-x="585" unicode="Ê"/><glyph d="M276 830q0-33-22-55t-55-22q-31 0-54 22t-24 55q0 31 23 53t55 23q33 0 55-22t22-54zm204 0q0-33-22-55t-55-22q-31 0-54 22t-23 55q0 31 23 53t54 23q33 0 55-22t22-54zM565 0H75v680h435l18-129H239V407h200l18-130H239V129h308L565 0z" glyph-name="Edieresis" horiz-adv-x="585" unicode="Ë"/><glyph d="M13 922h162q16-46 33-92t34-92H119L13 922zm225-242V0H74v680h164z" glyph-name="Igrave" horiz-adv-x="313" unicode="Ì"/><glyph d="M139 922h161L195 738H71l34 92 34 92zm99-242V0H74v680h164z" glyph-name="Iacute" horiz-adv-x="313" unicode="Í"/><glyph d="M102 739H-55l165 187h95l166-187H217q-14 16-28 31t-29 32q-14-16-28-31t-30-32zm136-59V0H74v680h164z" glyph-name="Icircumflex" horiz-adv-x="313" unicode="Î"/><glyph d="M127 829q0-32-22-54t-54-22q-31 0-54 22t-23 54q0 32 23 54t54 23q32 0 54-22t22-55zm205 0q0-32-22-54t-56-22q-31 0-53 22t-23 54q0 32 22 54t54 23q34 0 56-22t22-55zm-94-149V0H74v680h164z" glyph-name="Idieresis" horiz-adv-x="313" unicode="Ï"/><glyph d="M360 0H82v277H21q-4 32-7 64t-8 64h76v275h278q160 0 240-94t81-242q0-158-87-251T360 0zm-5 277H246V131h106q69 0 114 51t46 162q0 91-39 147t-115 57H246V405h94l15-128z" glyph-name="Eth" horiz-adv-x="721" unicode="Ð"/><glyph d="M306 750H193q0 82 38 114t83 32q32 0 56-17t48-17q9 0 16 9t7 20h108q0-83-36-114t-81-32q-33 0-56 17t-46 17q-10 0-17-10t-7-19zm368-70V0H518q-70 97-140 198T238 396V0H74v680h156l280-403v403h164z" glyph-name="Ntilde" horiz-adv-x="749" unicode="Ñ"/><glyph d="M225 922h161l68-184H330L225 922zm146-227q163 0 244-102t82-249q0-158-86-258T371-14Q209-14 128 88T46 337q0 157 87 257t238 101zm-1-572q74 0 115 55t42 166q0 93-36 153t-118 60q-72 0-115-60t-43-159q0-93 36-154t119-61z" glyph-name="Ograve" horiz-adv-x="742" unicode="Ò"/><glyph d="M361 922h161L416 738H293l68 184zm10-227q163 0 244-102t82-249q0-158-86-258T371-14Q209-14 128 88T46 337q0 157 87 257t238 101zm-1-572q74 0 115 55t42 166q0 93-36 153t-118 60q-72 0-115-60t-43-159q0-93 36-154t119-61z" glyph-name="Oacute" horiz-adv-x="742" unicode="Ó"/><glyph d="M314 739H155l166 187h95l167-187H428l-57 63-57-63zm57-44q163 0 244-102t82-249q0-158-86-258T371-14Q209-14 128 88T46 337q0 157 87 257t238 101zm-1-572q74 0 115 55t42 166q0 93-36 153t-118 60q-72 0-115-60t-43-159q0-93 36-154t119-61z" glyph-name="Ocircumflex" horiz-adv-x="742" unicode="Ô"/><glyph d="M304 750H191q0 82 38 114t83 32q32 0 56-17t48-17q9 0 16 10t7 20h108q0-83-36-115t-81-32q-33 0-56 17t-46 18q-9 0-16-10t-8-20zm67-55q163 0 244-102t82-249q0-158-86-258T371-14Q209-14 128 88T46 337q0 157 87 257t238 101zm-1-572q74 0 115 55t42 166q0 93-36 153t-118 60q-72 0-115-60t-43-159q0-93 36-154t119-61z" glyph-name="Otilde" horiz-adv-x="742" unicode="Õ"/><glyph d="M345 830q0-33-22-55t-55-22q-31 0-54 22t-23 55q0 31 23 53t54 23q33 0 55-22t22-54zm205 0q0-33-22-55t-56-22q-31 0-54 22t-23 55q0 31 23 53t54 23q34 0 56-22t22-54zM371 695q163 0 244-102t82-249q0-158-86-258T371-14Q209-14 128 88T46 337q0 157 87 257t238 101zm-1-572q74 0 115 55t42 166q0 93-36 153t-118 60q-72 0-115-60t-43-159q0-93 36-154t119-61z" glyph-name="Odieresis" horiz-adv-x="742" unicode="Ö"/><glyph d="M20 48q43 52 86 105t86 105L28 464q37 6 74 11t75 11l104-132 105 130h168L362 250q37-50 86-112t89-109H373l-99 126q-11-13-29-36t-76-95q-37 6-74 11T20 48z" glyph-name="multiply" horiz-adv-x="575" unicode="×"/><glyph d="M371 695q163 0 244-102t82-249q0-158-86-258T371-14Q209-14 128 88T46 337q0 157 87 257t238 101zM215 338q0-43 7-80t24-64l150 361q-6 1-11 1t-12 1q-72 0-115-60t-43-159zm155-215q74 0 115 55t42 166q0 38-6 71t-19 60L354 124h7q5 0 9-1z" glyph-name="Oslash" horiz-adv-x="742" unicode="Ø"/><glyph d="M221 922h161l68-184H326L221 922zm9-242V264q0-71 37-106t94-35q58 0 95 35t37 106v416h164V255q0-125-81-196T361-12q-133 0-214 70T66 255v425h164z" glyph-name="Ugrave" horiz-adv-x="724" unicode="Ù"/><glyph d="M336 922h161L392 738H268l34 92 34 92zM230 680V264q0-71 37-106t94-35q58 0 95 35t37 106v416h164V255q0-125-81-196T361-12q-133 0-214 70T66 255v425h164z" glyph-name="Uacute" horiz-adv-x="724" unicode="Ú"/><glyph d="M302 739H143l167 187h95q41-47 83-94t83-93H417q-14 16-28 31t-29 32l-58-63zm-72-59V264q0-71 37-106t94-35q58 0 95 35t37 106v416h164V255q0-125-81-196T361-12q-133 0-214 70T66 255v425h164z" glyph-name="Ucircumflex" horiz-adv-x="724" unicode="Û"/><glyph d="M336 829q0-32-22-54t-55-22q-31 0-54 22t-23 54q0 32 23 54t54 23q33 0 55-22t22-55zm204 0q0-32-22-54t-55-22q-31 0-54 22t-23 54q0 32 23 54t54 23q33 0 55-22t22-55zM230 680V264q0-71 37-106t94-35q58 0 95 35t37 106v416h164V255q0-125-81-196T361-12q-133 0-214 70T66 255v425h164z" glyph-name="Udieresis" horiz-adv-x="724" unicode="Ü"/><glyph d="M289 922h161L345 738H221l68 184zM239 0v267L9 662l170 18 141-258 149 258h170L403 264V0H239z" glyph-name="Yacute" horiz-adv-x="647" unicode="Ý"/><glyph d="M238 680V576h97q113 0 195-57t82-178q0-120-88-177t-197-57h-89V0H74v680h164zm92-234h-92V238h94q48 0 78 27t31 73q0 51-29 79t-82 29z" glyph-name="Thorn" horiz-adv-x="646" unicode="Þ"/><glyph d="M317 702q104 0 180-50t77-147q0-36-17-76t-48-62q44-16 77-64t34-105q0-91-67-144T378 0h-96v135h82q35 0 61 20t26 54q0 38-24 59t-55 22h-84v122h29q42 0 66 24t25 54q0 31-22 52t-63 21q-36 0-66-26t-30-75V0H63v472q0 102 68 166t186 64z" glyph-name="germandbls" horiz-adv-x="651" unicode="ß"/><glyph d="M111 775h165l69-187H219L111 775zm106-655q19 0 39 9t40 25v49h-71q-23 0-37-13t-14-33q0-15 12-26t31-11zm39 381q94 0 149-54t55-141V0h-76l-33 38q-24-21-60-35t-75-14q-91 0-135 45T36 152q0 78 52 115t136 38h71q-3 27-21 42t-47 15q-28 0-64-9t-64-21L55 455q35 18 92 32t109 14z" glyph-name="agrave" horiz-adv-x="513" unicode="à"/><glyph d="M236 775h164L292 588H166l70 187zm-19-655q19 0 39 9t40 25v49h-71q-23 0-37-13t-14-33q0-15 12-26t31-11zm39 381q94 0 149-54t55-141V0h-76l-33 38q-24-21-60-35t-75-14q-91 0-135 45T36 152q0 78 52 115t136 38h71q-3 27-21 42t-47 15q-28 0-64-9t-64-21L55 455q35 18 92 32t109 14z" glyph-name="aacute" horiz-adv-x="513" unicode="á"/><glyph d="M205 588H46l167 187h94l167-187H319l-56 63-58-63zm12-468q19 0 39 9t40 25v49h-71q-23 0-37-13t-14-33q0-15 12-26t31-11zm39 381q94 0 149-54t55-141V0h-76l-33 38q-24-21-60-35t-75-14q-91 0-135 45T36 152q0 78 52 115t136 38h71q-3 27-21 42t-47 15q-28 0-64-9t-64-21L55 455q35 18 92 32t109 14z" glyph-name="acircumflex" horiz-adv-x="513" unicode="â"/><glyph d="M189 600H76q0 82 38 114t83 32q33 0 56-17t48-17q9 0 16 10t8 20h108q0-83-36-115t-82-32q-33 0-55 17t-47 18q-9 0-16-10t-8-20zm28-480q19 0 39 9t40 25v49h-71q-23 0-37-13t-14-33q0-15 12-26t31-11zm39 381q94 0 149-54t55-141V0h-76l-33 38q-24-21-60-35t-75-14q-91 0-135 45T36 152q0 78 52 115t136 38h71q-3 27-21 42t-47 15q-28 0-64-9t-64-21L55 455q35 18 92 32t109 14z" glyph-name="atilde" horiz-adv-x="513" unicode="ã"/><glyph d="M235 680q0-33-22-55t-55-22q-31 0-54 22t-23 55q0 31 23 53t54 23q33 0 55-22t22-54zm204 0q0-33-22-55t-55-22q-31 0-54 22t-23 55q0 31 23 53t54 23q33 0 55-22t22-54zM217 120q19 0 39 9t40 25v49h-71q-23 0-37-13t-14-33q0-15 12-26t31-11zm39 381q94 0 149-54t55-141V0h-76l-33 38q-24-21-60-35t-75-14q-91 0-135 45T36 152q0 78 52 115t136 38h71q-3 27-21 42t-47 15q-28 0-64-9t-64-21L55 455q35 18 92 32t109 14z" glyph-name="adieresis" horiz-adv-x="513" unicode="ä"/><glyph d="M375 703q0-48-35-78t-83-31q-47 0-82 30t-35 79q0 47 35 79t82 33q47 0 82-32t36-80zm-85 0q0 13-9 22t-22 10q-13 0-23-9t-10-23q0-13 10-23t23-10q13 0 22 10t9 23zm-73-583q19 0 39 9t40 25v49h-71q-23 0-37-13t-14-33q0-15 12-26t31-11zm39 381q94 0 149-54t55-141V0h-76l-33 38q-24-21-60-35t-75-14q-91 0-135 45T36 152q0 78 52 115t136 38h71q-3 27-21 42t-47 15q-28 0-64-9t-64-21L55 455q35 18 92 32t109 14z" glyph-name="aring" horiz-adv-x="513" unicode="å"/><glyph d="M36 150q0 78 52 115t136 37h71q-5 21-18 40t-51 20q-28 0-64-9t-64-21L55 455q34 18 92 31t108 14q44 0 81-13t62-35q31 23 71 35t86 13q116 0 172-75t57-178v-55H478q10-35 38-52t71-18q33 0 63 7t62 22q11-28 23-56t24-57q-40-28-97-38t-88-11q-63 0-115 16t-88 51q-23-25-63-46t-93-21q-90 0-134 44T36 150zm515 216q-29 0-49-19t-28-53h153q-4 28-22 50t-54 22zM217 120q29 0 51 13t41 32l-4 16q-2 8-3 19h-77q-24 0-37-13t-14-32q0-15 12-25t31-10z" glyph-name="ae" horiz-adv-x="817" unicode="æ"/><glyph d="M306 365q-43 0-72-34t-30-89q0-55 29-86t73-32q28 0 51 6t55 22l47-114q-27-21-58-31T342-7l-11-29q35-12 51-42t17-56q0-56-41-85t-94-29q-26 0-56 10t-53 27l35 82q11-5 28-11t32-6q12 0 21 4t10 14q0 14-22 25t-63 15l32 83Q138 11 86 75T34 242q0 120 71 189t189 70q30 0 77-9t88-41l-47-114q-31 15-54 21t-52 7z" glyph-name="ccedilla" horiz-adv-x="487" unicode="ç"/><glyph d="M138 775h164l69-187H246L138 775zm151-274q116 0 172-75t57-178v-55H212q10-35 38-52t71-18q32 0 63 6t62 22l46-113Q453 9 396-1t-88-10q-121 0-197 63T34 242q0 120 72 189t183 70zm-4-134q-30 0-49-19t-27-53h152q-4 28-22 50t-54 22z" glyph-name="egrave" horiz-adv-x="550" unicode="è"/><glyph d="M270 775h164L326 588H201l69 187zm19-274q116 0 172-75t57-178v-55H212q10-35 38-52t71-18q32 0 63 6t62 22l46-113Q453 9 396-1t-88-10q-121 0-197 63T34 242q0 120 72 189t183 70zm-4-134q-30 0-49-19t-27-53h152q-4 28-22 50t-54 22z" glyph-name="eacute" horiz-adv-x="550" unicode="é"/><glyph d="M236 588H77l167 187h94l167-187H350l-57 63-57-63zm53-87q116 0 172-75t57-178v-55H212q10-35 38-52t71-18q32 0 63 6t62 22l46-113Q453 9 396-1t-88-10q-121 0-197 63T34 242q0 120 72 189t183 70zm-4-134q-30 0-49-19t-27-53h152q-4 28-22 50t-54 22z" glyph-name="ecircumflex" horiz-adv-x="550" unicode="ê"/><glyph d="M467 680q0-33-22-55t-55-22q-31 0-54 22t-23 55q0 31 23 53t54 23q33 0 55-22t22-54zm-204 0q0-33-22-55t-56-22q-31 0-54 22t-23 55q0 31 23 53t54 23q33 0 55-22t23-54zm26-179q116 0 172-75t57-178v-55H212q10-35 38-52t71-18q32 0 63 6t62 22l46-113Q453 9 396-1t-88-10q-121 0-197 63T34 242q0 120 72 189t183 70zm-4-134q-30 0-49-19t-27-53h152q-4 28-22 50t-54 22z" glyph-name="edieresis" horiz-adv-x="550" unicode="ë"/><glyph d="M-1 775h164l68-187H105q-27 46-53 93t-53 94zm226-290V0H60v485h165z" glyph-name="igrave" horiz-adv-x="286" unicode="ì"/><glyph d="M123 775h165L180 588H54l69 187zm102-290V0H60v485h165z" glyph-name="iacute" horiz-adv-x="286" unicode="í"/><glyph d="M88 588H-70q42 46 83 93t83 94h94l167-187H202l-56 63-58-63zm137-103V0H60v485h165z" glyph-name="icircumflex" horiz-adv-x="286" unicode="î"/><glyph d="M118 679q0-32-22-54t-56-22q-30 0-52 22t-23 54q0 32 22 54t53 23q33 0 55-22t23-55zm204 0q0-32-22-54t-55-22q-31 0-54 22t-23 54q0 32 23 54t54 23q33 0 55-22t22-55zm-97-194V0H60v485h165z" glyph-name="idieresis" horiz-adv-x="286" unicode="ï"/><glyph d="M434 611l-36-28q69-63 112-147t43-170q0-139-82-209T269-13Q161-13 96 55T30 210q0 84 66 143t168 59q21 0 46-9t51-23q-15 30-37 58t-48 51l-85-66-77 88 60 47q-19 10-37 16t-34 11l77 113q30-7 60-18t58-27l63 49 73-91zM274 120q44 0 74 30t38 85q-16 23-43 42t-61 19q-43 0-65-27t-23-63q0-31 21-58t59-28z" glyph-name="eth" horiz-adv-x="597" unicode="ð"/><glyph d="M238 600H124q0 82 38 114t83 32q33 0 56-17t48-17q9 0 16 10t8 20h108q0-83-36-115t-82-32q-32 0-55 17t-46 18q-10 0-17-10t-7-20zm130-97q101 0 144-58t44-144V0H392v297q0 34-18 52t-50 18q-21 0-49-11t-50-24V0H61v484h83l38-45q32 23 82 43t104 21z" glyph-name="ntilde" horiz-adv-x="609" unicode="ñ"/><glyph d="M160 775h165l69-187H268L160 775zm141-274q121 0 194-68t74-193q0-120-78-185T296-11q-116 0-189 65T34 245q0 120 76 188t191 68zm-3-377q47 0 74 28t27 88q0 55-24 90t-71 35q-48 0-74-31t-26-89q0-57 24-89t70-32z" glyph-name="ograve" horiz-adv-x="603" unicode="ò"/><glyph d="M275 775h164L332 588H206l69 187zm26-274q121 0 194-68t74-193q0-120-78-185T296-11q-116 0-189 65T34 245q0 120 76 188t191 68zm-3-377q47 0 74 28t27 88q0 55-24 90t-71 35q-48 0-74-31t-26-89q0-57 24-89t70-32z" glyph-name="oacute" horiz-adv-x="603" unicode="ó"/><glyph d="M245 588H87l167 187h94l167-187H360l-57 63-58-63zm56-87q121 0 194-68t74-193q0-120-78-185T296-11q-116 0-189 65T34 245q0 120 76 188t191 68zm-3-377q47 0 74 28t27 88q0 55-24 90t-71 35q-48 0-74-31t-26-89q0-57 24-89t70-32z" glyph-name="ocircumflex" horiz-adv-x="603" unicode="ô"/><glyph d="M233 600H120q0 82 38 114t83 32q33 0 56-17t48-17q9 0 16 10t8 20h108q0-83-36-115t-82-32q-33 0-55 17t-47 18q-10 0-17-10t-7-20zm68-99q121 0 194-68t74-193q0-120-78-185T296-11q-116 0-189 65T34 245q0 120 76 188t191 68zm-3-377q47 0 74 28t27 88q0 55-24 90t-71 35q-48 0-74-31t-26-89q0-57 24-89t70-32z" glyph-name="otilde" horiz-adv-x="603" unicode="õ"/><glyph d="M274 680q0-33-22-55t-55-22q-31 0-54 22t-23 55q0 31 23 53t54 23q33 0 55-22t22-54zm204 0q0-33-22-55t-55-22q-31 0-54 22t-23 55q0 31 23 53t54 23q33 0 55-22t22-54zM301 501q121 0 194-68t74-193q0-120-78-185T296-11q-116 0-189 65T34 245q0 120 76 188t191 68zm-3-377q47 0 74 28t27 88q0 55-24 90t-71 35q-48 0-74-31t-26-89q0-57 24-89t70-32z" glyph-name="odieresis" horiz-adv-x="603" unicode="ö"/><glyph d="M330 451q0-36-25-61t-61-25q-37 0-62 25t-25 61q0 37 25 62t62 25q36 0 61-25t25-62zm140-239H29L19 335h440l11-123zM330 94q0-36-25-61T244 8q-37 0-62 25t-25 61q0 37 25 62t62 26q36 0 61-25t25-63z" glyph-name="divide" horiz-adv-x="488" unicode="÷"/><glyph d="M34 244q0 120 75 188t192 68q120 0 194-68t74-193q0-120-78-185T295-11q-116 0-188 65T34 244zm269 125q-47 0-76-33t-29-91q0-16 2-29t6-26q25 45 50 89t51 90h-4zm101-130q0 14-2 28t-6 26L296 120q47 0 77 30t31 89z" glyph-name="oslash" horiz-adv-x="603" unicode="ø"/><glyph d="M160 775h164l70-187H268L160 775zm77-794Q136-19 94 39T52 183v301h165V187q0-34 17-52t48-18q19 0 45 10t48 23v334h165V0h-83l-38 43q-31-22-79-42T237-19z" glyph-name="ugrave" horiz-adv-x="601" unicode="ù"/><glyph d="M272 775h164L328 588H202l70 187zM237-19Q136-19 94 39T52 183v301h165V187q0-34 17-52t48-18q19 0 45 10t48 23v334h165V0h-83l-38 43q-31-22-79-42T237-19z" glyph-name="uacute" horiz-adv-x="601" unicode="ú"/><glyph d="M241 588H83l167 187h94l167-187H356l-57 63-58-63zm-4-607Q136-19 94 39T52 183v301h165V187q0-34 17-52t48-18q19 0 45 10t48 23v334h165V0h-83l-38 43q-31-22-79-42T237-19z" glyph-name="ucircumflex" horiz-adv-x="601" unicode="û"/><glyph d="M475 680q0-33-22-55t-55-22q-31 0-54 22t-23 55q0 31 23 53t54 23q33 0 55-22t22-54zm-204 0q0-33-22-55t-55-22q-31 0-54 22t-23 55q0 31 23 53t54 23q33 0 55-22t22-54zM237-19Q136-19 94 39T52 183v301h165V187q0-34 17-52t48-18q19 0 45 10t48 23v334h165V0h-83l-38 43q-31-22-79-42T237-19z" glyph-name="udieresis" horiz-adv-x="601" unicode="ü"/><glyph d="M232 775h165L289 588H163l69 187zM177-9l10 26L8 467l163 18q25-70 51-141t51-140q25 69 49 140t49 141h166L322-59q-24-59-84-102t-130-59L52-90q35 15 75 35t50 46z" glyph-name="yacute" horiz-adv-x="546" unicode="ý"/><glyph d="M397 246q0 48-24 84t-78 37q-19 0-36-6t-32-14V153q16-13 37-21t41-8q50 0 71 40t21 82zM227 692V475q26 13 54 20t56 7q114 0 171-72t58-182q0-109-57-184T331-11q-25 0-52 7t-52 19v-224L63-219v904l164 7z" glyph-name="thorn" horiz-adv-x="601" unicode="þ"/><glyph d="M453 679q0-32-22-54t-55-22q-31 0-54 22t-23 54q0 32 23 54t54 23q33 0 55-22t22-55zm-204 0q0-32-22-54t-56-22q-31 0-54 22t-23 54q0 32 23 54t54 23q33 0 55-22t23-55zM177-9l10 26L8 467l163 18q25-70 51-141t51-140q25 69 49 140t49 141h166L322-59q-24-59-84-102t-130-59L52-90q35 15 75 35t50 46z" glyph-name="ydieresis" horiz-adv-x="546" unicode="ÿ"/><glyph d="M410 209H30L19 338h381l10-129z" glyph-name="endash" horiz-adv-x="429" unicode="–"/><glyph d="M523 209H30L19 338h495l9-129z" glyph-name="emdash" horiz-adv-x="542" unicode="—"/><glyph d="M10 543q0 58 42 115t106 84l34-73q-18-13-35-29t-22-36q17-7 32-28t15-48q0-31-24-58t-62-28q-36 0-61 28t-25 73z" glyph-name="quoteleft" horiz-adv-x="200" unicode="‘"/><glyph d="M190 641q0-58-42-115T42 442L9 515q18 13 35 29t22 36q-18 7-33 28t-15 48q0 31 25 58t61 28q36 0 61-28t25-73z" glyph-name="quoteright" horiz-adv-x="200" unicode="’"/><glyph d="M190 45q0-57-42-114T42-154L9-80q18 13 35 29t22 36Q48-8 33 13T18 61q0 31 25 58t61 28q36 0 61-28t25-74z" glyph-name="quotesinglbase" horiz-adv-x="200" unicode="‚"/><glyph d="M10 543q0 58 42 115t106 84l34-73q-18-13-35-29t-22-36q17-7 32-28t15-48q0-31-24-58t-62-28q-36 0-61 28t-25 73zm201 0q0 58 43 115t106 84l34-73q-19-13-36-29t-22-36q17-7 32-28t16-48q0-31-25-58t-61-28q-36 0-61 28t-26 73z" glyph-name="quotedblleft" horiz-adv-x="402" unicode="“"/><glyph d="M392 641q0-58-43-115t-106-84l-33 73q18 13 35 29t22 36q-18 7-32 28t-15 48q0 31 24 58t62 28q35 0 60-28t26-73zm-202 0q0-58-42-115T42 442L9 515q18 13 35 29t22 36q-18 7-33 28t-15 48q0 31 25 58t61 28q36 0 61-28t25-73z" glyph-name="quotedblright" horiz-adv-x="402" unicode="”"/><glyph d="M392 45q0-57-43-114t-106-85l-33 74q18 13 35 29t22 36q-18 7-32 28t-15 48q0 31 24 58t62 28q35 0 60-28t26-74zm-202 0q0-57-42-114T42-154L9-80q18 13 35 29t22 36Q48-8 33 13T18 61q0 31 25 58t61 28q36 0 61-28t25-74z" glyph-name="quotedblbase" horiz-adv-x="402" unicode="„"/><glyph d="M30 331q0 49 34 83t84 35q49 0 84-34t36-84q0-49-35-83t-85-35q-49 0-83 34t-35 84z" glyph-name="bullet" horiz-adv-x="298" unicode="•"/><glyph d="M198 66L20 220v59l178 154 30-122-71-61 71-63-30-121z" glyph-name="guilsinglleft" horiz-adv-x="243" unicode="‹"/><glyph d="M45 433l178-153v-60L45 66 16 188l70 62-70 62 29 121z" glyph-name="guilsinglright" horiz-adv-x="243" unicode="›"/></font>
</defs>
</svg>
