<svg xmlns="http://www.w3.org/2000/svg">
  <defs>
    <symbol id="expand"  viewBox="0 0 24 24">
      <path d="M12 8l-6 6 1.4 1.4 4.6-4.6 4.6 4.6L18 14z"/><path fill="none" d="M0 0h24v24H0z"/>
    </symbol>

    <symbol id="github" viewBox="0 0 24 24">
      <path d="M12 2A10 10 0 0 0 2 12c0 4.4 3 8.2 6.8 9.5.5 0 .7-.2.7-.5v-1.7C6.7 20 6 18 6 18c-.3-1.2-1-1.5-1-1.5-1-.6 0-.6 0-.6 1 0 1.6 1 1.6 1 1 1 2.4 1 3 .4 0-.7.3-1 .6-1.4-2.2 0-4.6-1-4.6-5 0-1 .4-2 1-2.5 0-.3-.4-1.3.2-2.7 0 0 .8 0 2.7 1 .8-.2 1.7-.3 2.5-.3 1 0 1.7 0 2.5.4 2-1.4 2.8-1 2.8-1 .5 1.2 0 2.2 0 2.5.7.7 1 1.6 1 2.7 0 3.8-2.3 4.7-4.5 5 .4.2.7.8.7 1.8v3c0 .3.2.6.7.5 4-1.3 6.8-5 6.8-9.5A10 10 0 0 0 12 2z"/>
    </symbol>

    <symbol id="trout" viewBox="0 0 52.73 52.73" transform="matrix(1.0003 0 0 .99983 -1.92 -2.08)">
      <g><path d="M15.9 4.58a34.85 34.85 0 0 0-6.6.75s-2.34 1.14-2.9 2.5c0 0-1.05 4.56-.5 5.3 0-.02 3.54 6 2.98 6.53 0 0 2.1 2.54 2.76 2.5l.17-1.05s-2.7-2.3-2-4c0 0 11.3 15.5 21.4 20.2 0 0-.7 2.6-2.1 4.1L27 44.1s.16 1.8-.5 2.3c0 0 3.43-1.6 5.6-5l.1 1.3s2.03-.8 2.7-3.8c0 0 1.82.6 7 8.04l1.6 1.5s-.1-2.07-1.5-3.3c0 0 2.34.87 2.1 2.74l.9.36s-.2-3.5-4.36-8.17c0 0-2.82-2.5.28-4.16 0 0-1.25 3.2 2.8 5.07 0 0 9.1-9.85 3.18-17.74 0 0-10.6-18.8-30.9-18.5zm-.1 1.62a1.55 2.07 0 0 1 1.55 2.06 1.55 2.07 0 0 1-1.55 2.07 1.55 2.07 0 0 1-1.55-2.07A1.55 2.07 0 0 1 15.8 6.2zm8.75 2.87c4.1 7.73 1.66 9.8 1.66 9.8-3.8 6.13-13-.15-13-.15 17.1 5.35 11.4-9.65 11.4-9.65zm-15.8.23c1.36-.02 3.26 1.05 5.7 4.96 0 0-5.36-3.22-8.34-3.07 0 0 .9-1.9 2.7-1.9zM23.4 22.9c.88 0 2.87.66 7.38 3.8 0 0 6.5 3.34 7.9 3.52.1 0 .2 0 .27-.03h-.27c-2.44.2-7.46-1.6-7.46-1.6-6.85-2.7-8.95-1.4-8.95-1.4s1.88-.5.44-4c0 0 .1-.46.7-.47z"/><path fill-rule="evenodd" d="M13.1 23.7s-1.1 1.08-5.08 1.73c-3.98.65-3.5 3.48-3.5 3.48s1.15-1.6 4.44-1.5c3.28.1 2.1.3 5.05.1 3-.3 1.5-1.05 1.1-1.52-.4-.47-2-2.13-2-2.13zm15.1 16.53s-3.16-.4-8.08-4.7c0 0-4.22-2.97-4.68-2.94-.47 0-1.33-.4-1.33-.4s-.5 3.4-.2 3.7c.3.3.3 1.2 1.9 2.3 1.6 1.1-1.7-.08-1.7-.08s.5 2.73 1.9 3.8c0 0-4.3 1.46-5.2 4.84 0 0 4.3-.85 5.1.47 0 0-5.2-.07-5.45 1.8-.27 1.9.1 3.1.1 3.1s16.77 1.1 23.3-6.33c0 0 .5 2-1.14 3.53 0 0 1.5-.7 2.4-1.74.9-1 .37 2-1.15 3.23-1.53 1.26 5.2-1.1 6.2-5.35L36 42.18s-7 5.5-11.7 5.8c0 0 1.46-1.34 1.46-4.38z"/><path d="M38.98 11.38s5.2-3.75 11.5-.55c0 0-3.76-.15-.6 1.4 0 0 1.56.98 1.84 1.5 0 0-3.7-.96-5.16.3 0 0 4.26.32 5.04 1.9.78 1.58.3 2.27.43 2.3.04.5-1.64 2-1.64 2s-2.3-.96-3.7-.08c0 0-5-7.6-7.8-8.77z"/><ellipse cx="15.78" cy="8.32" rx=".68" ry="1.2"/></g>
    </symbol>

    <symbol id="download" viewBox="0 0 24 24">
      <path d="M19 9h-4V3H9v6H5l7 7 7-7zM5 18v2h14v-2H5z"></path>
    </symbol>

    <symbol id="email" viewBox="0 0 24 24">
      <path d="M20 4H4c-1.1 0-1.99.9-1.99 2L2 18c0 1.1.9 2 2 2h16c1.1 0 2-.9 2-2V6c0-1.1-.9-2-2-2zm0 4l-8 5-8-5V6l8 5 8-5v2z"></path>
      <path d="M0 0h24v24H0z" fill="none"></path>
    </symbol>
  </defs>
</svg>
