<?xml version="1.0" encoding="UTF-8" standalone="no"?>
<!-- Created with Inkscape (http://www.inkscape.org/) -->

<svg
   xmlns:osb="http://www.openswatchbook.org/uri/2009/osb"
   xmlns:dc="http://purl.org/dc/elements/1.1/"
   xmlns:cc="http://creativecommons.org/ns#"
   xmlns:rdf="http://www.w3.org/1999/02/22-rdf-syntax-ns#"
   xmlns:svg="http://www.w3.org/2000/svg"
   xmlns="http://www.w3.org/2000/svg"
   xmlns:sodipodi="http://sodipodi.sourceforge.net/DTD/sodipodi-0.dtd"
   xmlns:inkscape="http://www.inkscape.org/namespaces/inkscape"
   id="svg3390"
   version="1.1"
   inkscape:version="0.91 r13725"
   width="52.734375"
   height="52.734375"
   viewBox="0 0 52.734375 52.734375"
   sodipodi:docname="trout.svg"
   inkscape:export-filename="/home/kytrol/Documents/web/kytrol.github.io/src/assets/img/favicon/favicon-72.png"
   inkscape:export-xdpi="90"
   inkscape:export-ydpi="90">
  <metadata
     id="metadata3396">
    <rdf:RDF>
      <cc:Work
         rdf:about="">
        <dc:format>image/svg+xml</dc:format>
        <dc:type
           rdf:resource="http://purl.org/dc/dcmitype/StillImage" />
        <dc:title></dc:title>
      </cc:Work>
    </rdf:RDF>
  </metadata>
  <defs
     id="defs3394">
    <linearGradient
       id="linearGradient5736"
       osb:paint="solid">
      <stop
         style="stop-color:#ffffff;stop-opacity:1;"
         offset="0"
         id="stop5738" />
    </linearGradient>
    <linearGradient
       id="linearGradient5708"
       osb:paint="solid">
      <stop
         style="stop-color:#ffffff;stop-opacity:1;"
         offset="0"
         id="stop5710" />
    </linearGradient>
    <linearGradient
       id="linearGradient5668"
       osb:paint="solid">
      <stop
         style="stop-color:#00695c;stop-opacity:1;"
         offset="0"
         id="stop5670" />
    </linearGradient>
    <linearGradient
       id="linearGradient5662"
       osb:paint="solid">
      <stop
         style="stop-color:#00695c;stop-opacity:1;"
         offset="0"
         id="stop5664" />
    </linearGradient>
    <linearGradient
       id="linearGradient5656"
       osb:paint="solid">
      <stop
         style="stop-color:#00695c;stop-opacity:1;"
         offset="0"
         id="stop5658" />
    </linearGradient>
  </defs>
  <sodipodi:namedview
     pagecolor="#ff88ff"
     bordercolor="#666666"
     borderopacity="1"
     objecttolerance="10"
     gridtolerance="10"
     guidetolerance="10"
     inkscape:pageopacity="0"
     inkscape:pageshadow="2"
     inkscape:window-width="1867"
     inkscape:window-height="1056"
     id="namedview3392"
     showgrid="false"
     inkscape:zoom="8.7134815"
     inkscape:cx="14.35287"
     inkscape:cy="7.9422466"
     inkscape:window-x="1973"
     inkscape:window-y="24"
     inkscape:window-maximized="1"
     inkscape:current-layer="svg3390"
     inkscape:showpageshadow="false"
     borderlayer="false"
     showguides="false" />
  <g
     id="g5819"
     transform="matrix(1.0002932,0,0,0.99982894,-1.9206067,-2.0791509)"
     inkscape:export-filename="/home/kytrol/Documents/web/kytrol.github.io/src/assets/img/favicon/trout-192.png"
     inkscape:export-xdpi="90"
     inkscape:export-ydpi="90"
     style="fill:#b71c1c;fill-opacity:1;stroke:#ffffff;stroke-opacity:0">
    <path
       id="path5732"
       d="m 15.90625,4.5820312 c -2.101579,0.031009 -4.305959,0.2662746 -6.6152344,0.7480469 0,0 -2.3207536,1.1406232 -2.8730468,2.4902344 0,0 -1.0483864,4.5682085 -0.4960938,5.2949215 0,0 3.534715,6.021935 2.9824219,6.541016 0,0 2.0970171,2.544094 2.7597651,2.492188 l 0.166016,-1.039063 c 0,0 -2.7057204,-2.386942 -2.0429686,-3.996094 0,0 11.2660826,15.468893 21.3730466,20.140625 0,0 -0.771609,2.542365 -2.152344,4.09961 l -2.099609,2.699218 c 0,0 0.166658,1.764121 -0.496094,2.283204 0,0 3.424182,-1.659175 5.578125,-5.033204 l 0.109375,1.296875 c 0,0 2.044279,-0.831125 2.707032,-3.841797 0,0 1.822116,0.624013 7.013671,8.046876 l 1.601563,1.503906 c 0,0 -0.111455,-2.076471 -1.492187,-3.322266 0,0 2.320526,0.883261 2.099609,2.751953 l 0.882812,0.363281 c 0,0 -0.21913,-3.476705 -4.361328,-8.148437 0,0 -2.817451,-2.493237 0.275391,-4.154297 0,0 -1.270564,3.166464 2.816406,5.035156 0,0 9.057974,-9.861917 3.148438,-17.751953 0,0 -10.569501,-18.7997531 -30.884766,-18.4999998 z m -0.126953,1.6152344 a 1.5493233,2.0657644 0 0 1 1.550781,2.0664063 1.5493233,2.0657644 0 0 1 -1.550781,2.0644531 1.5493233,2.0657644 0 0 1 -1.548828,-2.0644531 1.5493233,2.0657644 0 0 1 1.548828,-2.0664063 z m 8.753906,2.8691406 c 4.08697,7.7343108 1.65625,9.8105468 1.65625,9.8105468 C 22.323401,25.002112 13.15625,18.722656 13.15625,18.722656 30.277337,24.069193 24.533203,9.0664063 24.533203,9.0664062 Z M 8.71875,9.3046875 c 1.366804,-0.027145 3.266586,1.0470385 5.707031,4.9531245 0,0 -5.3574608,-3.218224 -8.3398435,-3.0625 0,0 0.8754929,-1.8557232 2.6328125,-1.8906245 z M 23.404297,22.902344 c 0.877507,-0.01437 2.8645,0.659081 7.369141,3.8125 -10e-7,0 6.490289,3.32994 7.904296,3.507812 0.09126,-0.009 0.187867,-0.01433 0.271485,-0.0293 -0.03324,0.04463 -0.138461,0.04603 -0.271485,0.0293 -2.440303,0.239814 -7.460937,-1.585937 -7.460937,-1.585937 -6.848434,-2.699223 -8.947266,-1.34961 -8.947266,-1.34961 0,0 1.877368,-0.467467 0.441407,-3.945312 0,0 0.01085,-0.428276 0.693359,-0.439453 z"
       style="fill:#b71c1c;fill-opacity:1;stroke:#ffffff;stroke-width:0.37323657;stroke-miterlimit:4;stroke-dasharray:none;stroke-opacity:0"
       inkscape:connector-curvature="0" />
    <path
       inkscape:connector-curvature="0"
       id="path3402"
       d="m 13.100812,23.690783 c 0,0 -1.104587,1.09007 -5.0810972,1.738923 -3.9765103,0.648851 -3.507061,3.477844 -3.507061,3.477844 0,0 1.1598153,-1.66106 4.4459594,-1.583198 3.2861438,0.07786 2.0987138,0.311448 5.0534828,0.02595 2.954769,-0.285494 1.463576,-1.064117 1.076972,-1.53129 -0.386606,-0.467173 -1.988256,-2.128233 -1.988256,-2.128233 z"
       style="fill:#b71c1c;fill-opacity:1;fill-rule:evenodd;stroke:#ffffff;stroke-width:0.37323657;stroke-linecap:butt;stroke-linejoin:miter;stroke-miterlimit:4;stroke-dasharray:none;stroke-opacity:0" />
    <path
       inkscape:connector-curvature="0"
       id="path3404"
       d="m 28.205924,40.227102 c 0,0 -3.163295,-0.403751 -8.083976,-4.698188 0,0 -4.217726,-2.973071 -4.686362,-2.936367 -0.468637,0.03671 -1.327803,-0.403751 -1.327803,-0.403751 0,0 -0.507689,3.486937 -0.234318,3.780573 0.273371,0.293637 0.312424,1.211252 1.913598,2.349094 1.601174,1.137842 -1.718333,-0.03671 -1.718333,-0.03671 0,0 0.468636,2.716139 1.874545,3.780572 0,0 -4.295833,1.468188 -5.272158,4.84501 0,0 4.295832,-0.844205 5.076893,0.47716 0,0 -5.194052,-0.07341 -5.467423,1.798524 -0.273371,1.871934 0.117159,3.083186 0.117159,3.083186 0,0 16.753746,1.101137 23.275601,-6.31319 0,0 0.507689,2.018753 -1.132538,3.523641 0,0 1.523067,-0.697388 2.421288,-1.725116 0.898219,-1.027728 0.351477,1.982048 -1.171592,3.230004 -1.523067,1.247956 5.194052,-1.101138 6.209431,-5.35887 l -4.100568,-3.376822 c 0,0 -6.99049,5.505688 -11.676853,5.799325 0,0 1.444962,-1.321365 1.444962,-4.367846 z"
       style="fill:#b71c1c;fill-opacity:1;fill-rule:evenodd;stroke:#ffffff;stroke-width:0.37323657;stroke-linecap:butt;stroke-linejoin:miter;stroke-miterlimit:4;stroke-dasharray:none;stroke-opacity:0" />
    <path
       inkscape:connector-curvature="0"
       id="path4210"
       d="m 38.984557,11.377295 c 0,0 5.194053,-3.7438683 11.481588,-0.550569 0,0 -3.749089,-0.146818 -0.585794,1.394775 0,0 1.56212,0.991023 1.835492,1.504888 0,0 -3.710038,-0.95432 -5.154999,0.293636 0,0 4.256779,0.330342 5.037839,1.908639 0.781061,1.578297 0.312425,2.275685 0.429583,2.312389 0.03906,0.47716 -1.640227,1.982048 -1.640227,1.982048 0,0 -2.265074,-0.95432 -3.670983,-0.07341 0,0 -4.959735,-7.59785 -7.732499,-8.772397 z"
       style="fill:#b71c1c;fill-opacity:1;stroke:#ffffff;stroke-width:0.37323657;stroke-miterlimit:4;stroke-dasharray:none;stroke-opacity:0" />
    <ellipse
       ry="1.1995047"
       rx="0.68306357"
       cy="8.3204403"
       cx="15.780145"
       id="path5817"
       style="fill:#b71c1c;fill-opacity:1;stroke:#ffffff;stroke-width:0.52581382;stroke-miterlimit:4;stroke-dasharray:none;stroke-opacity:0" />
  </g>
</svg>
